<svg width="300" height="244" viewBox="0 0 300 244" fill="none" xmlns="http://www.w3.org/2000/svg">
<path d="M95.7235 162.995L97.9743 169.922H105.258L99.3657 174.204L101.616 181.131L95.7235 176.85L89.8305 181.131L92.0818 174.204L86.1888 169.922H93.4727L95.7235 162.995Z" fill="#394149"/>
<path d="M121.708 162.995L124.005 169.922H131.438L125.425 174.204L127.721 181.131L121.708 176.85L115.695 181.131L117.992 174.204L111.979 169.922H119.412L121.708 162.995Z" fill="#394149"/>
<path d="M147.488 162.995L149.785 169.922H157.217L151.204 174.204L153.501 181.131L147.488 176.85L141.475 181.131L143.771 174.204L137.758 169.922H145.191L147.488 162.995Z" fill="#394149"/>
<path d="M173.268 162.995L175.564 169.922H182.997L176.984 174.204L179.281 181.131L173.268 176.85L167.255 181.131L169.551 174.204L163.539 169.922H170.971L173.268 162.995Z" fill="#394149"/>
<path d="M199.253 162.995L201.503 169.922H208.788L202.893 174.204L205.143 181.131L199.253 176.85L193.359 181.131L195.611 174.204L189.718 169.922H197.002L199.253 162.995Z" fill="#394149"/>
<path d="M108.349 46.1197L110.051 51.3576H115.558L111.103 54.5947L112.804 59.8322L108.349 56.5954L103.893 59.8322L105.595 54.5947L101.14 51.3576H106.647L108.349 46.1197Z" fill="#394149"/>
<path d="M127.996 46.1124L129.733 51.3503H135.352L130.806 54.5874L132.542 59.8249L127.996 56.5877L123.449 59.8249L125.186 54.5874L120.639 51.3503H126.259L127.996 46.1124Z" fill="#394149"/>
<path d="M147.487 46.1124L149.223 51.3503H154.843L150.297 54.5874L152.033 59.8249L147.487 56.5877L142.94 59.8249L144.677 54.5874L140.13 51.3503H145.75L147.487 46.1124Z" fill="#394149"/>
<path d="M166.981 46.1124L168.717 51.3503H174.337L169.791 54.5874L171.527 59.8249L166.981 56.5877L162.434 59.8249L164.171 54.5874L159.624 51.3503H165.244L166.981 46.1124Z" fill="#394149"/>
<path d="M186.625 46.1124L188.327 51.3503H193.834L189.379 54.5874L191.081 59.8249L186.625 56.5877L182.169 59.8249L183.871 54.5874L179.416 51.3503H184.923L186.625 46.1124Z" fill="#394149"/>
<path d="M78.6803 38.94C70.571 39.1249 61.08 43.6978 55.4797 50.34C59.9708 54.5104 67.1968 52.9686 72.3969 52.1157C79.8187 50.8986 87.7111 48.5408 94.7145 45.2031C91.8349 39.0734 84.0778 38.8172 78.6803 38.94Z" fill="#394149"/>
<path d="M72.3028 28.9362C67.4996 36.4184 61.7753 43.8547 55.5458 50.4032C50.3339 45.5108 53.4799 37.369 55.607 32.3059C59.4604 23.1316 68.6992 15.2201 78.358 11.1721C81.0089 17.2034 75.2509 24.3438 72.3028 28.9362Z" fill="#394149"/>
<path d="M55.2138 59.9218C47.6205 62.6209 41.0955 70.2191 37.8195 77.8472C43.2795 80.3858 49.4866 76.7197 54.0276 74.2788C60.2627 70.9269 66.6239 66.302 71.6291 60.9499C67.1068 56.1782 60.24 58.1355 55.2138 59.9218Z" fill="#394149"/>
<path d="M46.0095 52.4453C44.3473 60.9791 41.5605 69.8242 37.9005 77.8861C31.5122 74.8731 31.7554 66.2436 32.0291 60.752C32.4961 51.3787 37.74 40.6897 45.041 33.8968C49.5105 38.6887 47.0684 47.0092 46.0095 52.4453Z" fill="#394149"/>
<path d="M40.6034 87.0101C34.2762 92.0015 30.4411 101.252 29.5528 109.512C35.5382 110.199 40.3224 104.752 43.8823 101.015C48.7289 95.9266 53.3169 89.5447 56.2305 82.8681C50.5249 79.7554 44.7247 83.7588 40.6034 87.0101Z" fill="#394149"/>
<path d="M29.6412 82.7963C30.7695 91.414 30.7719 100.737 29.6432 109.523C22.6824 108.668 20.3737 100.31 19.0099 95.0672C16.6553 86.0169 18.2339 74.3266 22.8207 65.5285C28.5527 68.7016 28.9204 77.2881 29.6412 82.7963Z" fill="#394149"/>
<path d="M35.638 116.578C30.6312 123.913 28.8705 135.406 31.1222 144.645C37.7384 143.078 41.0181 135.587 43.6516 130.297C47.1515 123.266 50.1097 115.064 51.1687 107.016C43.9926 105.523 38.936 111.747 35.638 116.578Z" fill="#394149"/>
<path d="M22.4947 115.837C26.3955 124.868 29.4397 134.808 31.2211 144.622C23.6331 146.252 18.1719 138.285 14.9992 133.001C9.35068 123.597 7.70514 110.559 9.77433 99.3085C16.7193 100.701 20.1178 110.336 22.4947 115.837Z" fill="#394149"/>
<path d="M39.1403 148.488C36.452 157.385 38.3205 169.481 43.7635 177.845C49.7449 173.951 50.5727 165.379 51.4204 159.234C52.5381 151.124 53.0643 142.14 51.6758 133.731C44.0254 134.708 40.9358 142.545 39.1403 148.488Z" fill="#394149"/>
<path d="M25.8454 152.297C32.5573 159.999 38.7486 168.78 43.8547 177.787C36.9296 182.111 28.8032 176.204 23.8747 172.024C15.1314 164.61 9.45405 152.008 8.10811 140.127C15.3843 139.149 21.7966 147.651 25.8454 152.297Z" fill="#394149"/>
<path d="M53.2464 178.77C53.8233 189.126 60.5655 199.993 69.5428 206.179C73.8783 200.243 71.1608 191.149 69.6819 184.8C67.691 176.253 64.9354 167.353 60.8404 159.456C53.6996 163.229 52.8665 171.95 53.2464 178.77Z" fill="#394149"/>
<path d="M41.1722 187.518C50.8982 192.923 60.5964 199.3 69.6134 206.086C64.2134 213.197 53.4199 210.362 46.7291 208.076C34.9382 204.048 24.4265 193.431 18.9361 181.635C25.8973 178.049 35.4268 184.326 41.1722 187.518Z" fill="#394149"/>
<path d="M80.9469 204.071C86.7843 214.724 100.087 221.674 112.614 223.347C113.962 215.602 105.582 207.934 101.016 202.917C94.5142 195.775 87.7395 188.364 80.1438 182.188C74.4531 188.796 77.4616 197.71 80.9469 204.071Z" fill="#394149"/>
<path d="M72.6101 217.572C85.8795 218.952 99.3738 220.938 112.635 223.228C111.369 233 95.8622 234.577 88.8223 235.154C74.3878 236.337 58.3305 230.535 47.1499 220.767C52.7031 214.232 65.5419 216.838 72.6101 217.572Z" fill="#394149"/>
<path d="M98.1685 18.7459C89.2597 21.2874 78.8319 26.1089 73.6804 35.0092C83.0311 33.99 92.2212 30.6628 101.209 28.1278C111.276 25.288 121.876 23.1641 131.623 19.2442C120.948 14.9736 108.365 15.8368 98.1685 18.7459Z" fill="#394149"/>
<path d="M222.709 38.94C230.818 39.1249 240.308 43.6978 245.911 50.34C241.419 54.5104 234.191 52.9686 228.993 52.1157C221.57 50.8986 213.677 48.5408 206.676 45.2031C209.554 39.0734 217.309 38.8172 222.709 38.94Z" fill="#394149"/>
<path d="M229.086 28.9362C233.891 36.4184 239.615 43.8547 245.842 50.4032C251.055 45.5108 247.909 37.369 245.781 32.3059C241.93 23.1316 232.691 15.2201 223.03 11.1721C220.378 17.2034 226.139 24.3438 229.086 28.9362Z" fill="#394149"/>
<path d="M246.178 59.9218C253.772 62.6209 260.295 70.2191 263.57 77.8472C258.109 80.3858 251.903 76.7197 247.362 74.2788C241.127 70.9269 234.766 66.302 229.764 60.9499C234.284 56.1782 241.151 58.1355 246.178 59.9218Z" fill="#394149"/>
<path d="M255.381 52.4453C257.043 60.9791 259.828 69.8242 263.489 77.8861C269.878 74.8731 269.635 66.2436 269.36 60.752C268.893 51.3787 263.651 40.6897 256.35 33.8968C251.878 38.6887 254.323 47.0092 255.381 52.4453Z" fill="#394149"/>
<path d="M260.785 87.0101C267.114 92.0015 270.949 101.252 271.837 109.512C265.853 110.199 261.069 104.752 257.509 101.015C252.661 95.9266 248.072 89.5447 245.161 82.8681C250.865 79.7554 256.666 83.7588 260.785 87.0101Z" fill="#394149"/>
<path d="M271.751 82.7963C270.62 91.4132 270.62 100.737 271.747 109.523C278.708 108.668 281.019 100.31 282.381 95.0672C284.736 86.0169 283.155 74.3266 278.57 65.5285C272.838 68.7016 272.469 77.2881 271.751 82.7963Z" fill="#394149"/>
<path d="M265.751 116.578C270.758 123.913 272.518 135.406 270.268 144.645C263.651 143.078 260.372 135.588 257.736 130.297C254.238 123.266 251.278 115.064 250.22 107.016C257.396 105.523 262.455 111.747 265.751 116.578Z" fill="#394149"/>
<path d="M278.895 115.837C274.995 124.868 271.95 134.808 270.17 144.622C277.755 146.252 283.216 138.285 286.391 133.001C292.038 123.597 293.684 110.559 291.616 99.3085C284.672 100.701 281.27 110.336 278.895 115.837Z" fill="#394149"/>
<path d="M262.249 148.488C264.936 157.385 263.072 169.481 257.627 177.845C251.647 173.951 250.816 165.379 249.969 159.234C248.854 151.124 248.327 142.14 249.714 133.731C257.364 134.708 260.453 142.545 262.249 148.488Z" fill="#394149"/>
<path d="M275.542 152.297C268.832 159.999 262.642 168.78 257.534 177.787C264.458 182.111 272.586 176.204 277.516 172.024C286.257 164.61 291.936 152.008 293.282 140.127C286.005 139.149 279.592 147.651 275.542 152.297Z" fill="#394149"/>
<path d="M248.141 178.77C247.565 189.126 240.823 199.993 231.847 206.179C227.509 200.243 230.23 191.149 231.705 184.8C233.696 176.253 236.453 167.353 240.547 159.456C247.691 163.229 248.522 171.95 248.141 178.77Z" fill="#394149"/>
<path d="M260.218 187.518C250.492 192.923 240.795 199.3 231.778 206.086C237.178 213.197 247.97 210.362 254.659 208.076C266.453 204.048 276.965 193.431 282.454 181.635C275.493 178.049 265.962 184.326 260.218 187.518Z" fill="#394149"/>
<path d="M220.443 204.071C214.605 214.724 201.304 221.674 188.775 223.347C187.427 215.602 195.807 207.934 200.376 202.917C206.874 195.775 213.649 188.364 221.246 182.188C226.938 188.796 223.926 197.71 220.443 204.071Z" fill="#394149"/>
<path d="M228.778 217.572C215.509 218.952 202.018 220.938 188.754 223.228C190.02 233 205.528 234.577 212.566 235.154C227.003 236.337 243.061 230.535 254.238 220.767C248.688 214.232 235.849 216.838 228.778 217.572Z" fill="#394149"/>
<path d="M203.222 18.7459C212.128 21.2874 222.559 26.1089 227.708 35.0092C218.359 33.99 209.169 30.6628 200.181 28.1278C190.114 25.288 179.514 23.1641 169.767 19.2442C180.442 14.9736 193.024 15.8368 203.222 18.7459Z" fill="#394149"/>
<path d="M156.488 14.1401L151.917 4.05405L147.432 13.9524L137.001 7.4854L143.704 21.5704H160.373L166.833 7.4854L156.488 14.1401Z" fill="#394149"/>
<path d="M160.266 23.7592H143.571V26.2228H160.266V23.7592Z" fill="#394149"/>
<path d="M153.111 214.345L155.801 222.624H164.507L157.464 227.741L160.154 236.02L153.111 230.904L146.068 236.02L148.759 227.741L141.716 222.624H150.421L153.111 214.345Z" fill="#394149"/>
<path d="M117.673 93.1158H114.654C114.614 92.8059 114.532 92.5262 114.407 92.2766C114.282 92.0271 114.117 91.8138 113.912 91.6367C113.707 91.4596 113.463 91.3248 113.181 91.2322C112.904 91.1357 112.596 91.0874 112.258 91.0874C111.658 91.0874 111.141 91.2343 110.706 91.5281C110.276 91.8219 109.944 92.2464 109.71 92.8018C109.481 93.3572 109.366 94.0294 109.366 94.8182C109.366 95.6392 109.483 96.3274 109.716 96.8828C109.954 97.4342 110.286 97.8507 110.712 98.1325C111.143 98.4102 111.652 98.549 112.24 98.549C112.57 98.549 112.869 98.5067 113.139 98.4222C113.413 98.3377 113.652 98.215 113.858 98.054C114.067 97.889 114.238 97.6897 114.371 97.4563C114.508 97.2189 114.602 96.9512 114.654 96.6534L117.673 96.6715C117.621 97.2189 117.462 97.7582 117.196 98.2894C116.934 98.8207 116.574 99.3056 116.115 99.7443C115.657 100.179 115.097 100.525 114.437 100.783C113.781 101.04 113.028 101.169 112.179 101.169C111.06 101.169 110.058 100.924 109.173 100.433C108.291 99.9375 107.595 99.2171 107.084 98.2713C106.573 97.3255 106.317 96.1745 106.317 94.8182C106.317 93.4579 106.577 92.3048 107.096 91.359C107.615 90.4132 108.318 89.6948 109.203 89.2038C110.088 88.7128 111.081 88.4673 112.179 88.4673C112.928 88.4673 113.62 88.572 114.256 88.7812C114.892 88.9865 115.451 89.2884 115.934 89.6868C116.417 90.0812 116.81 90.5662 117.111 91.1417C117.413 91.7172 117.6 92.3752 117.673 93.1158ZM123.711 101.175C122.737 101.175 121.9 100.976 121.2 100.577C120.504 100.175 119.966 99.6155 119.588 98.8991C119.214 98.1787 119.027 97.3436 119.027 96.3938C119.027 95.44 119.214 94.6049 119.588 93.8885C119.966 93.1681 120.504 92.6087 121.2 92.2102C121.9 91.8078 122.737 91.6065 123.711 91.6065C124.685 91.6065 125.52 91.8078 126.217 92.2102C126.917 92.6087 127.454 93.1681 127.828 93.8885C128.207 94.6049 128.396 95.44 128.396 96.3938C128.396 97.3436 128.207 98.1787 127.828 98.8991C127.454 99.6155 126.917 100.175 126.217 100.577C125.52 100.976 124.685 101.175 123.711 101.175ZM123.729 98.9474C124.084 98.9474 124.383 98.8388 124.629 98.6214C124.874 98.4041 125.062 98.1023 125.19 97.7159C125.323 97.3295 125.39 96.8828 125.39 96.3757C125.39 95.8606 125.323 95.4098 125.19 95.0234C125.062 94.6371 124.874 94.3352 124.629 94.1179C124.383 93.9006 124.084 93.7919 123.729 93.7919C123.363 93.7919 123.053 93.9006 122.8 94.1179C122.55 94.3352 122.359 94.6371 122.226 95.0234C122.097 95.4098 122.033 95.8606 122.033 96.3757C122.033 96.8828 122.097 97.3295 122.226 97.7159C122.359 98.1023 122.55 98.4041 122.8 98.6214C123.053 98.8388 123.363 98.9474 123.729 98.9474ZM129.908 101V91.7273H132.715V93.4297H132.818C133.011 92.8662 133.337 92.4215 133.796 92.0955C134.255 91.7695 134.802 91.6065 135.438 91.6065C136.082 91.6065 136.633 91.7715 137.092 92.1016C137.551 92.4316 137.843 92.8743 137.968 93.4297H138.064C138.237 92.8783 138.575 92.4376 139.078 92.1076C139.581 91.7736 140.175 91.6065 140.859 91.6065C141.737 91.6065 142.449 91.8883 142.996 92.4517C143.544 93.0111 143.817 93.7798 143.817 94.7578V101H140.865V95.4339C140.865 94.9711 140.747 94.619 140.509 94.3775C140.272 94.132 139.964 94.0092 139.585 94.0092C139.179 94.0092 138.859 94.142 138.626 94.4077C138.396 94.6693 138.281 95.0214 138.281 95.4641V101H135.444V95.4038C135.444 94.9731 135.327 94.633 135.094 94.3835C134.861 94.134 134.553 94.0092 134.17 94.0092C133.913 94.0092 133.685 94.0716 133.488 94.1964C133.291 94.3171 133.136 94.4902 133.023 94.7156C132.915 94.9409 132.86 95.2066 132.86 95.5124V101H129.908ZM145.647 104.477V91.7273H148.568V93.315H148.659C148.78 93.0333 148.951 92.7616 149.172 92.5C149.397 92.2384 149.683 92.0251 150.029 91.8601C150.379 91.6911 150.798 91.6065 151.285 91.6065C151.929 91.6065 152.531 91.7756 153.09 92.1136C153.653 92.4517 154.108 92.9729 154.454 93.6772C154.801 94.3815 154.974 95.279 154.974 96.3697C154.974 97.4201 154.807 98.2995 154.472 99.0078C154.142 99.7161 153.696 100.247 153.132 100.602C152.573 100.956 151.951 101.133 151.267 101.133C150.8 101.133 150.396 101.056 150.053 100.903C149.711 100.75 149.424 100.549 149.19 100.3C148.961 100.05 148.784 99.7826 148.659 99.4968H148.599V104.477H145.647ZM148.538 96.3636C148.538 96.8627 148.605 97.2973 148.737 97.6676C148.874 98.0379 149.069 98.3256 149.323 98.5309C149.581 98.7321 149.888 98.8327 150.247 98.8327C150.609 98.8327 150.917 98.7321 151.17 98.5309C151.424 98.3256 151.615 98.0379 151.744 97.6676C151.877 97.2973 151.943 96.8627 151.943 96.3636C151.943 95.8646 151.877 95.4319 151.744 95.0657C151.615 94.6995 151.424 94.4157 151.17 94.2145C150.921 94.0133 150.613 93.9126 150.247 93.9126C149.884 93.9126 149.577 94.0112 149.323 94.2085C149.069 94.4057 148.874 94.6874 148.737 95.0536C148.605 95.4199 148.538 95.8565 148.538 96.3636ZM162.503 96.9975V91.7273H165.449V101H162.636V99.2734H162.539C162.334 99.8409 161.984 100.292 161.489 100.626C160.998 100.956 160.404 101.121 159.708 101.121C159.076 101.121 158.521 100.976 158.042 100.686C157.563 100.396 157.191 99.9918 156.925 99.4727C156.659 98.9495 156.525 98.3377 156.521 97.6374V91.7273H159.473V97.0579C159.477 97.561 159.609 97.9574 159.871 98.2472C160.133 98.5369 160.489 98.6818 160.94 98.6818C161.233 98.6818 161.497 98.6174 161.73 98.4886C161.968 98.3558 162.155 98.1647 162.292 97.9151C162.433 97.6616 162.503 97.3557 162.503 96.9975ZM172.562 91.7273V93.9006H166.712V91.7273H172.562ZM167.938 89.5057H170.89V98.0842C170.89 98.2653 170.918 98.4122 170.974 98.5249C171.035 98.6335 171.121 98.712 171.234 98.7603C171.347 98.8046 171.482 98.8267 171.639 98.8267C171.751 98.8267 171.87 98.8166 171.995 98.7965C172.123 98.7724 172.22 98.7522 172.284 98.7362L172.731 100.867C172.59 100.907 172.391 100.958 172.134 101.018C171.88 101.078 171.576 101.117 171.222 101.133C170.53 101.165 169.936 101.085 169.441 100.891C168.95 100.694 168.574 100.388 168.312 99.9737C168.055 99.5592 167.93 99.038 167.938 98.4102V89.5057ZM178.303 101.175C177.333 101.175 176.496 100.984 175.792 100.602C175.092 100.215 174.552 99.6658 174.174 98.9535C173.8 98.2371 173.613 97.3859 173.613 96.3999C173.613 95.442 173.802 94.6049 174.18 93.8885C174.558 93.1681 175.092 92.6087 175.78 92.2102C176.468 91.8078 177.279 91.6065 178.213 91.6065C178.873 91.6065 179.476 91.7092 180.024 91.9144C180.571 92.1197 181.044 92.4235 181.442 92.826C181.841 93.2285 182.151 93.7255 182.372 94.3171C182.594 94.9047 182.704 95.5788 182.704 96.3395V97.076H174.645V95.3615H179.957C179.953 95.0476 179.879 94.7679 179.734 94.5224C179.589 94.2769 179.39 94.0857 179.136 93.9489C178.887 93.808 178.599 93.7376 178.273 93.7376C177.943 93.7376 177.647 93.812 177.386 93.9609C177.124 94.1058 176.917 94.305 176.764 94.5586C176.611 94.8081 176.53 95.0919 176.522 95.4098V97.1545C176.522 97.5328 176.597 97.8648 176.746 98.1506C176.895 98.4323 177.106 98.6516 177.38 98.8086C177.653 98.9656 177.979 99.044 178.358 99.044C178.619 99.044 178.857 99.0078 179.07 98.9354C179.283 98.8629 179.466 98.7563 179.619 98.6154C179.772 98.4746 179.887 98.3015 179.963 98.0962L182.674 98.1747C182.561 98.7824 182.314 99.3117 181.931 99.7624C181.553 100.209 181.056 100.557 180.44 100.807C179.825 101.052 179.112 101.175 178.303 101.175ZM184.212 101V91.7273H187.079V93.4176H187.176C187.345 92.8059 187.621 92.3511 188.003 92.0533C188.385 91.7514 188.83 91.6005 189.337 91.6005C189.474 91.6005 189.615 91.6106 189.76 91.6307C189.905 91.6468 190.04 91.6729 190.164 91.7092V94.2749C190.023 94.2266 189.838 94.1883 189.609 94.1602C189.384 94.132 189.182 94.1179 189.005 94.1179C188.655 94.1179 188.339 94.1964 188.057 94.3533C187.78 94.5063 187.56 94.7216 187.399 94.9993C187.242 95.273 187.164 95.5949 187.164 95.9652V101H184.212ZM105.767 113.192C105.719 112.705 105.512 112.327 105.145 112.057C104.779 111.788 104.282 111.653 103.654 111.653C103.228 111.653 102.868 111.713 102.574 111.834C102.28 111.951 102.055 112.114 101.898 112.323C101.745 112.532 101.668 112.77 101.668 113.035C101.66 113.257 101.706 113.45 101.807 113.615C101.912 113.78 102.055 113.923 102.236 114.043C102.417 114.16 102.626 114.263 102.864 114.351C103.101 114.436 103.355 114.508 103.624 114.569L104.735 114.834C105.274 114.955 105.769 115.116 106.22 115.317C106.671 115.518 107.061 115.766 107.391 116.06C107.721 116.353 107.977 116.7 108.158 117.098C108.343 117.496 108.438 117.953 108.442 118.468C108.438 119.225 108.244 119.881 107.862 120.436C107.484 120.988 106.936 121.416 106.22 121.722C105.508 122.024 104.648 122.175 103.642 122.175C102.644 122.175 101.775 122.022 101.034 121.716C100.298 121.41 99.7223 120.958 99.3078 120.358C98.8973 119.754 98.6819 119.008 98.6618 118.118H101.191C101.219 118.533 101.338 118.879 101.547 119.157C101.761 119.43 102.045 119.638 102.399 119.778C102.757 119.915 103.161 119.984 103.612 119.984C104.055 119.984 104.439 119.919 104.765 119.79C105.095 119.662 105.351 119.483 105.532 119.253C105.713 119.024 105.804 118.76 105.804 118.462C105.804 118.185 105.721 117.951 105.556 117.762C105.395 117.573 105.158 117.412 104.844 117.279C104.534 117.146 104.153 117.026 103.703 116.917L102.356 116.579C101.314 116.325 100.491 115.929 99.8873 115.39C99.2836 114.85 98.9838 114.124 98.9878 113.21C98.9838 112.462 99.183 111.808 99.5855 111.248C99.992 110.689 100.549 110.252 101.258 109.938C101.966 109.624 102.771 109.467 103.672 109.467C104.59 109.467 105.391 109.624 106.075 109.938C106.763 110.252 107.299 110.689 107.681 111.248C108.063 111.808 108.261 112.456 108.273 113.192H105.767ZM116.098 118.052V112.727H118.67V122H116.201V120.316H116.104C115.895 120.859 115.547 121.296 115.06 121.626C114.577 121.956 113.987 122.121 113.291 122.121C112.671 122.121 112.126 121.98 111.655 121.698C111.184 121.416 110.816 121.016 110.55 120.497C110.288 119.978 110.156 119.356 110.152 118.631V112.727H112.723V118.173C112.727 118.72 112.874 119.153 113.164 119.471C113.454 119.788 113.842 119.947 114.329 119.947C114.639 119.947 114.929 119.877 115.198 119.736C115.468 119.591 115.685 119.378 115.85 119.096C116.02 118.815 116.102 118.466 116.098 118.052ZM120.727 125.477V112.727H123.262V114.285H123.377C123.49 114.035 123.653 113.782 123.866 113.524C124.083 113.263 124.365 113.045 124.711 112.872C125.061 112.695 125.496 112.607 126.015 112.607C126.691 112.607 127.315 112.784 127.887 113.138C128.458 113.488 128.915 114.017 129.257 114.725C129.599 115.43 129.77 116.313 129.77 117.376C129.77 118.41 129.603 119.283 129.269 119.996C128.939 120.704 128.488 121.241 127.917 121.608C127.349 121.97 126.713 122.151 126.009 122.151C125.51 122.151 125.085 122.068 124.735 121.903C124.389 121.738 124.105 121.531 123.884 121.282C123.663 121.028 123.494 120.772 123.377 120.515H123.299V125.477H120.727ZM123.244 117.364C123.244 117.915 123.321 118.396 123.474 118.806C123.627 119.217 123.848 119.537 124.138 119.766C124.427 119.992 124.78 120.104 125.194 120.104C125.613 120.104 125.967 119.99 126.257 119.76C126.546 119.527 126.766 119.205 126.915 118.794C127.068 118.38 127.144 117.903 127.144 117.364C127.144 116.828 127.07 116.357 126.921 115.951C126.772 115.545 126.552 115.227 126.263 114.997C125.973 114.768 125.617 114.653 125.194 114.653C124.776 114.653 124.421 114.764 124.132 114.985C123.846 115.206 123.627 115.52 123.474 115.927C123.321 116.333 123.244 116.812 123.244 117.364ZM135.71 122.181C134.757 122.181 133.936 121.988 133.247 121.602C132.563 121.211 132.036 120.66 131.666 119.947C131.295 119.231 131.11 118.384 131.11 117.406C131.11 116.452 131.295 115.615 131.666 114.895C132.036 114.174 132.557 113.613 133.229 113.21C133.905 112.808 134.698 112.607 135.608 112.607C136.22 112.607 136.789 112.705 137.316 112.902C137.848 113.096 138.31 113.387 138.705 113.778C139.103 114.168 139.413 114.659 139.634 115.251C139.856 115.838 139.967 116.527 139.967 117.315V118.022H132.137V116.428H137.546C137.546 116.058 137.465 115.73 137.304 115.444C137.143 115.158 136.92 114.935 136.634 114.774C136.352 114.609 136.024 114.526 135.65 114.526C135.26 114.526 134.914 114.617 134.612 114.798C134.314 114.975 134.08 115.214 133.911 115.516C133.742 115.814 133.656 116.146 133.652 116.512V118.028C133.652 118.487 133.736 118.883 133.905 119.217C134.078 119.551 134.322 119.809 134.636 119.99C134.95 120.171 135.322 120.261 135.753 120.261C136.038 120.261 136.3 120.221 136.538 120.141C136.775 120.06 136.978 119.939 137.147 119.778C137.316 119.617 137.445 119.42 137.534 119.187L139.912 119.344C139.791 119.915 139.544 120.414 139.17 120.841C138.799 121.263 138.32 121.594 137.733 121.831C137.149 122.064 136.475 122.181 135.71 122.181ZM141.645 122V112.727H144.138V114.345H144.235C144.404 113.77 144.687 113.335 145.086 113.041C145.484 112.743 145.943 112.594 146.462 112.594C146.591 112.594 146.73 112.603 146.879 112.619C147.028 112.635 147.159 112.657 147.271 112.685V114.967C147.15 114.931 146.983 114.899 146.77 114.87C146.557 114.842 146.362 114.828 146.185 114.828C145.806 114.828 145.468 114.911 145.17 115.076C144.877 115.237 144.643 115.462 144.47 115.752C144.301 116.042 144.217 116.376 144.217 116.754V122H141.645ZM157.528 112.727L154.286 122H151.388L148.147 112.727H150.863L152.789 119.362H152.886L154.805 112.727H157.528ZM158.844 122V112.727H161.416V122H158.844ZM160.136 111.532C159.754 111.532 159.426 111.405 159.152 111.152C158.882 110.894 158.747 110.586 158.747 110.228C158.747 109.874 158.882 109.57 159.152 109.316C159.426 109.059 159.754 108.93 160.136 108.93C160.518 108.93 160.844 109.059 161.114 109.316C161.388 109.57 161.524 109.874 161.524 110.228C161.524 110.586 161.388 110.894 161.114 111.152C160.844 111.405 160.518 111.532 160.136 111.532ZM171.191 115.371L168.837 115.516C168.796 115.315 168.71 115.134 168.577 114.973C168.444 114.808 168.269 114.677 168.052 114.581C167.839 114.48 167.583 114.43 167.285 114.43C166.887 114.43 166.551 114.514 166.277 114.683C166.003 114.848 165.866 115.07 165.866 115.347C165.866 115.569 165.955 115.756 166.132 115.909C166.309 116.062 166.613 116.184 167.044 116.277L168.722 116.615C169.623 116.8 170.296 117.098 170.738 117.509C171.181 117.919 171.402 118.458 171.402 119.126C171.402 119.734 171.223 120.267 170.865 120.726C170.511 121.185 170.024 121.543 169.404 121.801C168.788 122.054 168.078 122.181 167.273 122.181C166.046 122.181 165.068 121.926 164.339 121.414C163.615 120.899 163.19 120.199 163.065 119.314L165.595 119.181C165.671 119.555 165.856 119.841 166.15 120.038C166.444 120.231 166.82 120.328 167.279 120.328C167.73 120.328 168.092 120.241 168.366 120.068C168.643 119.891 168.784 119.664 168.788 119.386C168.784 119.153 168.686 118.961 168.493 118.812C168.299 118.66 168.002 118.543 167.599 118.462L165.993 118.142C165.088 117.961 164.414 117.647 163.971 117.201C163.532 116.754 163.313 116.184 163.313 115.492C163.313 114.897 163.474 114.383 163.796 113.953C164.122 113.522 164.579 113.19 165.166 112.957C165.758 112.723 166.45 112.607 167.243 112.607C168.414 112.607 169.336 112.854 170.008 113.349C170.684 113.844 171.078 114.518 171.191 115.371ZM173.022 122V112.727H175.593V122H173.022ZM174.314 111.532C173.931 111.532 173.603 111.405 173.33 111.152C173.06 110.894 172.925 110.586 172.925 110.228C172.925 109.874 173.06 109.57 173.33 109.316C173.603 109.059 173.931 108.93 174.314 108.93C174.696 108.93 175.022 109.059 175.292 109.316C175.565 109.57 175.702 109.874 175.702 110.228C175.702 110.586 175.565 110.894 175.292 111.152C175.022 111.405 174.696 111.532 174.314 111.532ZM180.225 116.639V122H177.654V112.727H180.105V114.363H180.213C180.418 113.824 180.763 113.397 181.246 113.083C181.728 112.766 182.314 112.607 183.002 112.607C183.646 112.607 184.208 112.747 184.687 113.029C185.166 113.311 185.538 113.713 185.803 114.237C186.069 114.756 186.202 115.375 186.202 116.096V122H183.63V116.555C183.634 115.987 183.489 115.545 183.195 115.227C182.902 114.905 182.497 114.744 181.982 114.744C181.636 114.744 181.33 114.818 181.064 114.967C180.803 115.116 180.598 115.333 180.449 115.619C180.304 115.901 180.229 116.241 180.225 116.639ZM192.406 125.67C191.573 125.67 190.859 125.556 190.263 125.326C189.672 125.101 189.201 124.793 188.851 124.403C188.5 124.012 188.273 123.574 188.168 123.087L190.547 122.767C190.619 122.952 190.734 123.125 190.891 123.286C191.048 123.447 191.255 123.576 191.513 123.672C191.774 123.773 192.092 123.823 192.467 123.823C193.026 123.823 193.487 123.686 193.849 123.413C194.215 123.143 194.398 122.69 194.398 122.054V120.358H194.29C194.177 120.616 194.008 120.859 193.783 121.088C193.557 121.318 193.268 121.505 192.913 121.65C192.559 121.795 192.137 121.867 191.646 121.867C190.949 121.867 190.316 121.706 189.744 121.384C189.177 121.058 188.724 120.561 188.386 119.893C188.052 119.221 187.885 118.372 187.885 117.346C187.885 116.295 188.056 115.418 188.398 114.713C188.74 114.009 189.195 113.482 189.762 113.132C190.334 112.782 190.959 112.607 191.64 112.607C192.159 112.607 192.593 112.695 192.944 112.872C193.294 113.045 193.575 113.263 193.789 113.524C194.006 113.782 194.173 114.035 194.29 114.285H194.386V112.727H196.94V122.091C196.94 122.879 196.747 123.539 196.361 124.071C195.974 124.602 195.439 125 194.755 125.266C194.075 125.536 193.292 125.67 192.406 125.67ZM192.461 119.935C192.875 119.935 193.225 119.833 193.511 119.627C193.801 119.418 194.022 119.12 194.175 118.734C194.332 118.344 194.411 117.877 194.411 117.333C194.411 116.79 194.334 116.319 194.181 115.921C194.028 115.518 193.807 115.206 193.517 114.985C193.227 114.764 192.875 114.653 192.461 114.653C192.038 114.653 191.682 114.768 191.392 114.997C191.102 115.223 190.883 115.536 190.734 115.939C190.585 116.341 190.511 116.806 190.511 117.333C190.511 117.869 190.585 118.332 190.734 118.722C190.887 119.108 191.106 119.408 191.392 119.621C191.682 119.831 192.038 119.935 192.461 119.935ZM101.814 143H99.0127L103.281 130.636H106.649L110.912 143H108.11L105.013 133.462H104.917L101.814 143ZM101.639 138.14H108.255V140.181H101.639V138.14ZM119.851 136.371L117.496 136.516C117.456 136.315 117.37 136.134 117.237 135.973C117.104 135.808 116.929 135.677 116.711 135.581C116.498 135.48 116.243 135.43 115.945 135.43C115.546 135.43 115.21 135.514 114.937 135.683C114.663 135.848 114.526 136.07 114.526 136.347C114.526 136.569 114.615 136.756 114.792 136.909C114.969 137.062 115.273 137.184 115.703 137.277L117.382 137.615C118.283 137.8 118.955 138.098 119.398 138.509C119.841 138.919 120.062 139.458 120.062 140.126C120.062 140.734 119.883 141.267 119.525 141.726C119.171 142.185 118.684 142.543 118.064 142.801C117.448 143.054 116.738 143.181 115.933 143.181C114.705 143.181 113.727 142.926 112.999 142.414C112.274 141.899 111.85 141.199 111.725 140.314L114.254 140.181C114.331 140.555 114.516 140.841 114.81 141.038C115.104 141.231 115.48 141.328 115.939 141.328C116.39 141.328 116.752 141.241 117.025 141.068C117.303 140.891 117.444 140.664 117.448 140.386C117.444 140.153 117.345 139.961 117.152 139.812C116.959 139.66 116.661 139.543 116.259 139.462L114.653 139.142C113.747 138.961 113.073 138.647 112.631 138.201C112.192 137.754 111.972 137.184 111.972 136.492C111.972 135.897 112.133 135.383 112.455 134.953C112.781 134.522 113.238 134.19 113.826 133.957C114.417 133.723 115.11 133.607 115.903 133.607C117.074 133.607 117.995 133.854 118.667 134.349C119.344 134.844 119.738 135.518 119.851 136.371ZM129.397 136.371L127.042 136.516C127.002 136.315 126.915 136.134 126.783 135.973C126.65 135.808 126.475 135.677 126.257 135.581C126.044 135.48 125.789 135.43 125.491 135.43C125.092 135.43 124.756 135.514 124.483 135.683C124.209 135.848 124.072 136.07 124.072 136.347C124.072 136.569 124.161 136.756 124.338 136.909C124.515 137.062 124.819 137.184 125.249 137.277L126.927 137.615C127.829 137.8 128.501 138.098 128.944 138.509C129.387 138.919 129.608 139.458 129.608 140.126C129.608 140.734 129.429 141.267 129.071 141.726C128.716 142.185 128.229 142.543 127.61 142.801C126.994 143.054 126.284 143.181 125.479 143.181C124.251 143.181 123.273 142.926 122.545 142.414C121.82 141.899 121.396 141.199 121.271 140.314L123.8 140.181C123.877 140.555 124.062 140.841 124.356 141.038C124.65 141.231 125.026 141.328 125.485 141.328C125.935 141.328 126.298 141.241 126.571 141.068C126.849 140.891 126.99 140.664 126.994 140.386C126.99 140.153 126.891 139.961 126.698 139.812C126.505 139.66 126.207 139.543 125.805 139.462L124.199 139.142C123.293 138.961 122.619 138.647 122.176 138.201C121.738 137.754 121.518 137.184 121.518 136.492C121.518 135.897 121.679 135.383 122.001 134.953C122.327 134.522 122.784 134.19 123.372 133.957C123.963 133.723 124.656 133.607 125.448 133.607C126.62 133.607 127.541 133.854 128.213 134.349C128.889 134.844 129.284 135.518 129.397 136.371ZM135.417 143.181C134.479 143.181 133.668 142.982 132.984 142.583C132.304 142.181 131.779 141.622 131.408 140.905C131.038 140.185 130.853 139.35 130.853 138.4C130.853 137.442 131.038 136.605 131.408 135.888C131.779 135.168 132.304 134.609 132.984 134.21C133.668 133.808 134.479 133.607 135.417 133.607C136.355 133.607 137.164 133.808 137.844 134.21C138.528 134.609 139.055 135.168 139.425 135.888C139.796 136.605 139.981 137.442 139.981 138.4C139.981 139.35 139.796 140.185 139.425 140.905C139.055 141.622 138.528 142.181 137.844 142.583C137.164 142.982 136.355 143.181 135.417 143.181ZM135.429 141.189C135.856 141.189 136.212 141.068 136.498 140.827C136.783 140.581 136.999 140.247 137.143 139.825C137.292 139.402 137.367 138.921 137.367 138.382C137.367 137.842 137.292 137.362 137.143 136.939C136.999 136.516 136.783 136.182 136.498 135.937C136.212 135.691 135.856 135.569 135.429 135.569C134.998 135.569 134.636 135.691 134.342 135.937C134.053 136.182 133.833 136.516 133.684 136.939C133.539 137.362 133.467 137.842 133.467 138.382C133.467 138.921 133.539 139.402 133.684 139.825C133.833 140.247 134.053 140.581 134.342 140.827C134.636 141.068 134.998 141.189 135.429 141.189ZM145.843 143.181C144.893 143.181 144.076 142.98 143.392 142.577C142.712 142.171 142.188 141.607 141.822 140.887C141.46 140.167 141.279 139.338 141.279 138.4C141.279 137.45 141.462 136.617 141.828 135.901C142.198 135.18 142.724 134.619 143.404 134.216C144.084 133.81 144.893 133.607 145.831 133.607C146.64 133.607 147.348 133.753 147.956 134.047C148.563 134.341 149.044 134.754 149.398 135.285C149.753 135.816 149.948 136.44 149.984 137.156H147.557C147.489 136.693 147.308 136.321 147.014 136.039C146.724 135.754 146.344 135.611 145.873 135.611C145.474 135.611 145.126 135.719 144.828 135.937C144.535 136.15 144.305 136.462 144.14 136.873C143.975 137.283 143.893 137.78 143.893 138.364C143.893 138.955 143.973 139.458 144.134 139.873C144.299 140.287 144.531 140.603 144.828 140.821C145.126 141.038 145.474 141.147 145.873 141.147C146.167 141.147 146.43 141.086 146.664 140.966C146.901 140.845 147.096 140.67 147.249 140.44C147.406 140.207 147.509 139.927 147.557 139.601H149.984C149.944 140.31 149.751 140.933 149.404 141.473C149.062 142.008 148.59 142.426 147.986 142.728C147.382 143.03 146.668 143.181 145.843 143.181ZM151.631 143V133.727H154.202V143H151.631ZM152.923 132.532C152.54 132.532 152.212 132.405 151.938 132.152C151.669 131.894 151.534 131.586 151.534 131.228C151.534 130.874 151.669 130.57 151.938 130.316C152.212 130.059 152.54 129.93 152.923 129.93C153.305 129.93 153.631 130.059 153.9 130.316C154.174 130.57 154.311 130.874 154.311 131.228C154.311 131.586 154.174 131.894 153.9 132.152C153.631 132.405 153.305 132.532 152.923 132.532ZM158.907 143.175C158.315 143.175 157.788 143.072 157.325 142.867C156.862 142.658 156.496 142.35 156.226 141.944C155.961 141.533 155.828 141.022 155.828 140.41C155.828 139.895 155.922 139.462 156.112 139.112C156.301 138.762 156.558 138.48 156.884 138.267C157.21 138.054 157.581 137.893 157.995 137.784C158.414 137.675 158.852 137.599 159.311 137.555C159.85 137.498 160.285 137.446 160.615 137.398C160.945 137.345 161.185 137.269 161.333 137.168C161.482 137.068 161.557 136.919 161.557 136.722V136.685C161.557 136.303 161.436 136.007 161.195 135.798C160.957 135.589 160.619 135.484 160.18 135.484C159.718 135.484 159.349 135.587 159.076 135.792C158.802 135.993 158.621 136.247 158.532 136.553L156.154 136.359C156.275 135.796 156.512 135.309 156.866 134.898C157.22 134.484 157.677 134.166 158.237 133.945C158.8 133.719 159.452 133.607 160.192 133.607C160.708 133.607 161.201 133.667 161.672 133.788C162.146 133.908 162.567 134.096 162.933 134.349C163.304 134.603 163.595 134.929 163.809 135.327C164.022 135.721 164.129 136.194 164.129 136.746V143H161.69V141.714H161.617C161.468 142.004 161.269 142.259 161.02 142.481C160.77 142.698 160.47 142.869 160.12 142.994C159.77 143.115 159.365 143.175 158.907 143.175ZM159.643 141.4C160.021 141.4 160.355 141.326 160.645 141.177C160.935 141.024 161.162 140.819 161.327 140.561C161.492 140.304 161.575 140.012 161.575 139.686V138.702C161.494 138.754 161.384 138.802 161.243 138.847C161.106 138.887 160.951 138.925 160.778 138.961C160.605 138.993 160.432 139.024 160.259 139.052C160.086 139.076 159.929 139.098 159.788 139.118C159.486 139.163 159.223 139.233 158.997 139.33C158.772 139.426 158.597 139.557 158.472 139.722C158.347 139.883 158.285 140.084 158.285 140.326C158.285 140.676 158.412 140.943 158.665 141.129C158.923 141.31 159.249 141.4 159.643 141.4ZM171.056 133.727V135.659H165.472V133.727H171.056ZM166.74 131.506H169.311V140.151C169.311 140.388 169.347 140.573 169.42 140.706C169.492 140.835 169.593 140.925 169.722 140.978C169.855 141.03 170.008 141.056 170.181 141.056C170.301 141.056 170.422 141.046 170.543 141.026C170.664 141.002 170.756 140.984 170.821 140.972L171.225 142.885C171.096 142.926 170.915 142.972 170.682 143.024C170.448 143.08 170.164 143.115 169.83 143.127C169.211 143.151 168.667 143.068 168.2 142.879C167.738 142.69 167.377 142.396 167.12 141.998C166.862 141.599 166.736 141.096 166.74 140.489V131.506ZM172.731 143V133.727H175.303V143H172.731ZM174.023 132.532C173.641 132.532 173.313 132.405 173.039 132.152C172.769 131.894 172.635 131.586 172.635 131.228C172.635 130.874 172.769 130.57 173.039 130.316C173.313 130.059 173.641 129.93 174.023 129.93C174.405 129.93 174.731 130.059 175.001 130.316C175.275 130.57 175.412 130.874 175.412 131.228C175.412 131.586 175.275 131.894 175.001 132.152C174.731 132.405 174.405 132.532 174.023 132.532ZM181.553 143.181C180.615 143.181 179.804 142.982 179.12 142.583C178.44 142.181 177.914 141.622 177.544 140.905C177.174 140.185 176.989 139.35 176.989 138.4C176.989 137.442 177.174 136.605 177.544 135.888C177.914 135.168 178.44 134.609 179.12 134.21C179.804 133.808 180.615 133.607 181.553 133.607C182.49 133.607 183.299 133.808 183.98 134.21C184.664 134.609 185.191 135.168 185.561 135.888C185.931 136.605 186.117 137.442 186.117 138.4C186.117 139.35 185.931 140.185 185.561 140.905C185.191 141.622 184.664 142.181 183.98 142.583C183.299 142.982 182.49 143.181 181.553 143.181ZM181.565 141.189C181.991 141.189 182.348 141.068 182.633 140.827C182.919 140.581 183.134 140.247 183.279 139.825C183.428 139.402 183.503 138.921 183.503 138.382C183.503 137.842 183.428 137.362 183.279 136.939C183.134 136.516 182.919 136.182 182.633 135.937C182.348 135.691 181.991 135.569 181.565 135.569C181.134 135.569 180.772 135.691 180.478 135.937C180.188 136.182 179.969 136.516 179.82 136.939C179.675 137.362 179.603 137.842 179.603 138.382C179.603 138.921 179.675 139.402 179.82 139.825C179.969 140.247 180.188 140.581 180.478 140.827C180.772 141.068 181.134 141.189 181.565 141.189ZM190.361 137.639V143H187.789V133.727H190.24V135.363H190.348C190.554 134.824 190.898 134.397 191.381 134.083C191.864 133.766 192.449 133.607 193.138 133.607C193.781 133.607 194.343 133.747 194.822 134.029C195.301 134.311 195.673 134.713 195.939 135.237C196.204 135.756 196.337 136.375 196.337 137.096V143H193.765V137.555C193.769 136.987 193.625 136.545 193.331 136.227C193.037 135.905 192.632 135.744 192.117 135.744C191.771 135.744 191.465 135.818 191.2 135.967C190.938 136.116 190.733 136.333 190.584 136.619C190.439 136.901 190.365 137.241 190.361 137.639Z" fill="black"/>
</svg>
